# xmcd CD database file
#
# Track frame offsets:
#	150
#	14862
#	27775
#	51925
#	68862
#	81487
#	98612
#	114575
#	126950
#	141950
#	153025
#	168850
#	183825
#	202537
#	217950
#	231425
#
# Disc length: 3298 seconds
#
# Revision: 0
# Processed by: cddbd v1.4PL0 Copyright (c) Steve Scherf et al.
# Submitted via: Feurio! 1.65 - http://www.feurio.com
#
DISCID=d40ce010
DTITLE=Various Artist - Romantic Piano 11
DYEAR=1996
DGENRE=Piano
TTITLE0=Terms of endearment
TTITLE1=Smoke gets in your eyes
TTITLE2=Send in the clowns
TTITLE3=Early in the morning
TTITLE4=Sing
TTITLE5=Ballade pour Adeline
TTITLE6=It never rains in south california
TTITLE7=Scarboro fair
TTITLE8=Concerto pour une voix
TTITLE9=Around the world
TTITLE10=Morning dew
TTITLE11=Bridge over troubled water
TTITLE12=Hello mr.sunshine
TTITLE13=Lamour est blue
TTITLE14=Greensleeves
TTITLE15=Music box dancer
EXTD=
EXTT0=
EXTT1=
EXTT2=
EXTT3=
EXTT4=
EXTT5=
EXTT6=
EXTT7=
EXTT8=
EXTT9=
EXTT10=
EXTT11=
EXTT12=
EXTT13=
EXTT14=
EXTT15=
PLAYORDER=
